<?xml version="1.0" encoding="utf-8"?>
<!DOCTYPE svg PUBLIC "-//W3C//DTD SVG 1.1//EN" "http://www.w3.org/Graphics/SVG/1.1/DTD/svg11.dtd">
<svg xmlns="http://www.w3.org/2000/svg" xmlns:xlink="http://www.w3.org/1999/xlink" version="1.1" baseProfile="full" width="1466.22" height="281.244" viewBox="0 0 1466.22 281.24" enable-background="new 0 0 1466.22 281.24" xml:space="preserve">
	<g>
		<path fill="#ffffff" fill-opacity="1" stroke-width="0.2" stroke-linejoin="round" d="M 89.131,15.6443C 101.004,15.6443 110.628,26.0292 110.628,38.8397C 110.628,51.6501 101.004,62.035 89.131,62.035C 77.2584,62.035 67.6337,51.6501 67.6337,38.8397C 67.6337,26.0292 77.2583,15.6443 89.131,15.6443 Z M 73.6328,68.5085L 104.629,68.5085C 104.745,68.5085 104.86,68.5157 104.974,68.5297L 166.185,2.24373C 168.941,-0.740341 173.417,-0.749008 176.182,2.22414C 178.948,5.19753 178.956,10.0268 176.2,13.0109L 107.629,87.2669L 107.629,117.073L 107.781,117.823L 131.565,257.06C 132.616,263.213 128.845,269.12 123.143,270.254C 117.441,271.388 111.966,267.319 110.915,261.166L 93.8542,161.29L 84.4071,161.29L 67.3469,261.166C 66.296,267.319 60.8214,271.388 55.1191,270.254C 49.4167,269.12 45.6461,263.213 46.697,257.06L 70.4804,117.823L 70.6332,117.07L 70.6332,87.2655L 2.06145,13.011C -0.694168,10.027 -0.686111,5.19765 2.07951,2.22426C 4.84497,-0.748947 9.3208,-0.740219 12.0764,2.24373L 73.2893,68.5295C 73.402,68.5156 73.5167,68.5085 73.6328,68.5085 Z "/>
		<path fill="#ffffff" fill-opacity="1" stroke-width="0.2" stroke-linejoin="round" d="M 267.437,77.4878C 267.299,74.9747 267.228,72.4446 267.228,69.8989C 267.228,51.7503 270.8,34.3887 277.315,18.4054L 561.282,18.4054C 567.797,34.3887 571.368,51.7503 571.368,69.8989C 571.368,72.3392 571.304,74.7653 571.176,77.1757C 562.129,76.0059 552.852,75.3983 543.401,75.3983C 495.562,75.3983 452.182,90.966 420.464,116.228C 388.746,90.966 345.365,75.3983 297.526,75.3983C 287.268,75.3983 277.215,76.1141 267.437,77.4878 Z M 199.642,0.242447L 638.955,0.242447L 638.955,5.39534L 651.773,6.24153L 653.786,23.2921C 656.602,23.6444 658.765,25.7249 658.765,28.2388L 671.583,78.2327C 671.583,80.9937 668.974,83.232 665.756,83.232L 644.781,83.232C 641.563,83.232 638.955,80.9937 638.955,78.2327L 645.946,28.2388C 645.946,26.1256 647.475,24.3185 649.634,23.5869L 648.574,10.241L 638.955,10.241L 638.955,14.4063L 199.642,14.4063L 199.642,0.242447 Z "/>
		<path fill="#ffffff" fill-opacity="1" stroke-width="0.2" stroke-linejoin="round" d="M 325.994,198.124C 321.88,199.764 316.43,201.394 309.642,203.014C 302.854,204.634 296.09,205.444 289.349,205.444C 273.717,205.444 261.479,201.064 252.634,192.304C 243.79,183.544 239.367,171.444 239.367,156.004C 239.367,141.284 243.849,129.417 252.813,120.404C 261.777,111.391 274.274,106.884 290.304,106.884C 296.382,106.884 302.168,107.424 307.661,108.504C 313.155,109.584 319.266,111.737 325.994,114.964L 325.994,136.324L 323.307,136.324C 322.139,135.524 320.431,134.397 318.181,132.944C 315.932,131.491 313.766,130.251 311.682,129.224C 309.267,128.024 306.447,126.987 303.223,126.114C 299.998,125.241 296.568,124.804 292.932,124.804C 288.685,124.804 284.834,125.447 281.377,126.734C 277.92,128.021 274.818,129.991 272.071,132.644C 269.444,135.204 267.37,138.464 265.851,142.424C 264.332,146.384 263.572,150.951 263.572,156.124C 263.572,166.697 266.286,174.788 271.713,180.394C 277.141,186.001 285.156,188.804 295.758,188.804C 296.674,188.804 297.679,188.784 298.774,188.744C 299.869,188.704 300.874,188.638 301.789,188.544L 301.789,169.604L 283.955,169.604L 283.955,151.684L 325.994,151.684L 325.994,198.124 Z "/>
		<path fill="#ffffff" fill-opacity="1" stroke-width="0.2" stroke-linejoin="round" d="M 415.168,170.884L 364.212,170.884C 364.543,177.097 366.617,181.851 370.432,185.144C 374.247,188.437 379.864,190.084 387.282,190.084C 391.992,190.084 396.554,189.134 400.966,187.234C 405.378,185.334 408.865,183.298 411.426,181.124L 413.894,181.124L 413.894,199.524C 408.839,201.604 404.068,203.111 399.583,204.044C 395.098,204.978 390.141,205.444 384.714,205.444C 370.687,205.444 359.942,202.224 352.478,195.784C 345.013,189.344 341.281,180.171 341.281,168.264C 341.281,156.478 344.814,147.141 351.88,140.254C 358.947,133.368 368.637,129.924 380.952,129.924C 392.324,129.924 400.87,132.778 406.589,138.484C 412.309,144.191 415.168,152.398 415.168,163.104L 415.168,170.884 Z M 392.238,158.084C 392.118,153.831 390.994,150.634 388.864,148.494C 386.734,146.354 383.427,145.284 378.941,145.284C 374.761,145.284 371.328,146.298 368.641,148.324C 365.953,150.351 364.451,153.604 364.132,158.084L 392.238,158.084 Z "/>
		<path fill="#ffffff" fill-opacity="1" stroke-width="0.2" stroke-linejoin="round" d="M 503.069,167.724C 503.069,179.404 499.669,188.611 492.868,195.344C 486.067,202.077 476.516,205.444 464.214,205.444C 451.913,205.444 442.362,202.077 435.561,195.344C 428.76,188.611 425.36,179.404 425.36,167.724C 425.36,155.951 428.784,146.708 435.631,139.994C 442.478,133.281 452.006,129.924 464.214,129.924C 476.595,129.924 486.166,133.301 492.927,140.054C 499.688,146.808 503.069,156.031 503.069,167.724 Z M 475.54,185.424C 477.066,183.558 478.214,181.318 478.984,178.704C 479.754,176.091 480.138,172.471 480.138,167.844C 480.138,163.564 479.744,159.978 478.954,157.084C 478.164,154.191 477.066,151.878 475.66,150.144C 474.253,148.371 472.565,147.118 470.594,146.384C 468.623,145.651 466.497,145.284 464.214,145.284C 461.932,145.284 459.902,145.587 458.123,146.194C 456.345,146.801 454.647,148.011 453.028,149.824C 451.581,151.504 450.43,153.814 449.574,156.754C 448.718,159.694 448.29,163.391 448.29,167.844C 448.29,171.818 448.662,175.264 449.405,178.184C 450.148,181.104 451.243,183.451 452.689,185.224C 454.096,186.904 455.775,188.134 457.725,188.914C 459.676,189.694 461.905,190.084 464.413,190.084C 466.563,190.084 468.613,189.728 470.564,189.014C 472.515,188.301 474.174,187.104 475.54,185.424 Z "/>
		<path fill="#ffffff" fill-opacity="1" stroke-width="0.2" stroke-linejoin="round" d="M 541.287,202.884L 518.356,202.884L 518.356,132.484L 541.287,132.484L 541.287,202.884 Z M 541.287,122.244L 518.356,122.244L 518.356,105.604L 541.287,105.604L 541.287,122.244 Z "/>
		<path fill="#ffffff" fill-opacity="1" stroke-width="0.2" stroke-linejoin="round" d="M 631.735,202.884L 608.804,202.884L 608.804,167.364C 608.804,164.471 608.665,161.587 608.386,158.714C 608.108,155.841 607.63,153.724 606.953,152.364C 606.157,150.791 604.996,149.644 603.47,148.924C 601.944,148.204 599.807,147.844 597.06,147.844C 595.11,147.844 593.133,148.184 591.129,148.864C 589.125,149.544 586.949,150.631 584.6,152.124L 584.6,202.884L 561.669,202.884L 561.669,132.484L 584.6,132.484L 584.6,139.724C 588.528,136.564 592.303,134.141 595.926,132.454C 599.549,130.768 603.569,129.924 607.988,129.924C 615.433,129.924 621.252,132.157 625.445,136.624C 629.638,141.091 631.735,147.771 631.735,156.664L 631.735,202.884 Z "/>
		<path fill="#ffffff" fill-opacity="1" stroke-width="0.2" stroke-linejoin="round" d="M 697.979,203.384C 695.511,204.024 692.89,204.528 690.116,204.894C 687.343,205.261 683.952,205.444 679.945,205.444C 670.988,205.444 664.323,203.634 659.95,200.014C 655.578,196.394 653.392,190.191 653.392,181.404L 653.392,147.844L 644.474,147.844L 644.474,132.484L 653.392,132.484L 653.392,112.004L 676.322,112.004L 676.322,132.484L 697.979,132.484L 697.979,147.844L 676.322,147.844L 676.322,173.464C 676.322,175.997 676.342,178.211 676.382,180.104C 676.422,181.997 676.767,183.691 677.417,185.184C 678.014,186.691 679.072,187.884 680.592,188.764C 682.111,189.644 684.331,190.084 687.25,190.084C 688.444,190.084 690.017,189.784 691.968,189.184C 693.918,188.584 695.278,188.031 696.048,187.524L 697.979,187.524L 697.979,203.384 Z "/>
		<path fill="#ffffff" fill-opacity="1" stroke-width="0.2" stroke-linejoin="round" d="M 779.51,170.884L 728.553,170.884C 728.885,177.097 730.958,181.851 734.773,185.144C 738.588,188.437 744.205,190.084 751.623,190.084C 756.334,190.084 760.895,189.134 765.308,187.234C 769.72,185.334 773.207,183.298 775.768,181.124L 778.236,181.124L 778.236,199.524C 773.18,201.604 768.409,203.111 763.924,204.044C 759.439,204.978 754.483,205.444 749.055,205.444C 735.029,205.444 724.283,202.224 716.819,195.784C 709.355,189.344 705.622,180.171 705.622,168.264C 705.622,156.478 709.156,147.141 716.222,140.254C 723.288,133.368 732.979,129.924 745.293,129.924C 756.665,129.924 765.211,132.778 770.931,138.484C 776.65,144.191 779.51,152.398 779.51,163.104L 779.51,170.884 Z M 756.579,158.084C 756.46,153.831 755.335,150.634 753.205,148.494C 751.076,146.354 747.768,145.284 743.283,145.284C 739.103,145.284 735.669,146.298 732.982,148.324C 730.295,150.351 728.792,153.604 728.473,158.084L 756.579,158.084 Z "/>
		<rect x="794.797" y="105.604" fill="#ffffff" fill-opacity="1" stroke-width="0.2" stroke-linejoin="round" width="22.9305" height="97.2801"/>
		<rect x="838.11" y="105.604" fill="#ffffff" fill-opacity="1" stroke-width="0.2" stroke-linejoin="round" width="22.9305" height="97.2801"/>
		<path fill="#ffffff" fill-opacity="1" stroke-width="0.2" stroke-linejoin="round" d="M 950.215,170.884L 899.258,170.884C 899.59,177.097 901.664,181.851 905.479,185.144C 909.294,188.437 914.91,190.084 922.328,190.084C 927.039,190.084 931.601,189.134 936.013,187.234C 940.425,185.334 943.912,183.298 946.473,181.124L 948.941,181.124L 948.941,199.524C 943.885,201.604 939.115,203.111 934.63,204.044C 930.144,204.978 925.188,205.444 919.761,205.444C 905.734,205.444 894.989,202.224 887.524,195.784C 880.06,189.344 876.328,180.171 876.328,168.264C 876.328,156.478 879.861,147.141 886.927,140.254C 893.994,133.368 903.684,129.924 915.999,129.924C 927.371,129.924 935.917,132.778 941.636,138.484C 947.355,144.191 950.215,152.398 950.215,163.104L 950.215,170.884 Z M 927.285,158.084C 927.165,153.831 926.041,150.634 923.911,148.494C 921.781,146.354 918.473,145.284 913.988,145.284C 909.808,145.284 906.375,146.298 903.687,148.324C 901,150.351 899.497,153.604 899.179,158.084L 927.285,158.084 Z "/>
		<path fill="#ffffff" fill-opacity="1" stroke-width="0.2" stroke-linejoin="round" d="M 1002.53,205.444C 996.342,205.444 990.692,204.701 985.577,203.214C 980.461,201.728 976.005,199.431 972.21,196.324C 968.468,193.218 965.565,189.304 963.502,184.584C 961.438,179.864 960.407,174.337 960.407,168.004C 960.407,161.324 961.511,155.561 963.721,150.714C 965.93,145.868 969.012,141.851 972.967,138.664C 976.802,135.637 981.224,133.424 986.233,132.024C 991.243,130.624 996.441,129.924 1001.83,129.924C 1006.67,129.924 1011.14,130.434 1015.22,131.454C 1019.31,132.474 1023.12,133.804 1026.65,135.444L 1026.65,154.244L 1023.39,154.244C 1022.5,153.591 1021.42,152.824 1020.16,151.944C 1018.9,151.064 1017.35,150.204 1015.52,149.364C 1013.77,148.564 1011.85,147.898 1009.76,147.364C 1007.67,146.831 1005.24,146.564 1002.47,146.564C 996.322,146.564 991.598,148.487 988.293,152.334C 984.989,156.181 983.337,161.404 983.337,168.004C 983.337,174.804 985.032,179.971 988.423,183.504C 991.813,187.038 996.62,188.804 1002.84,188.804C 1005.75,188.804 1008.36,188.514 1010.69,187.934C 1013.01,187.354 1014.94,186.671 1016.48,185.884C 1017.93,185.138 1019.2,184.354 1020.31,183.534C 1021.42,182.714 1022.44,181.911 1023.39,181.124L 1026.65,181.124L 1026.65,200.064C 1023.07,201.718 1019.33,203.028 1015.43,203.994C 1011.54,204.961 1007.24,205.444 1002.53,205.444 Z "/>
		<path fill="#ffffff" fill-opacity="1" stroke-width="0.2" stroke-linejoin="round" d="M 1086.52,203.384C 1084.06,204.024 1081.44,204.528 1078.66,204.894C 1075.89,205.261 1072.5,205.444 1068.49,205.444C 1059.53,205.444 1052.87,203.634 1048.5,200.014C 1044.12,196.394 1041.94,190.191 1041.94,181.404L 1041.94,147.844L 1033.02,147.844L 1033.02,132.484L 1041.94,132.484L 1041.94,112.004L 1064.87,112.004L 1064.87,132.484L 1086.52,132.484L 1086.52,147.844L 1064.87,147.844L 1064.87,173.464C 1064.87,175.997 1064.89,178.211 1064.93,180.104C 1064.97,181.997 1065.31,183.691 1065.96,185.184C 1066.56,186.691 1067.62,187.884 1069.14,188.764C 1070.66,189.644 1072.88,190.084 1075.8,190.084C 1076.99,190.084 1078.56,189.784 1080.51,189.184C 1082.46,188.584 1083.82,188.031 1084.59,187.524L 1086.52,187.524L 1086.52,203.384 Z "/>
		<rect x="1123.58" y="178.564" fill="#ffffff" fill-opacity="1" stroke-width="0.2" stroke-linejoin="round" width="22.9307" height="24.32"/>
		<path fill="#ffffff" fill-opacity="1" stroke-width="0.2" stroke-linejoin="round" d="M 1225.46,205.444C 1219.28,205.444 1213.63,204.701 1208.51,203.214C 1203.4,201.728 1198.94,199.431 1195.15,196.324C 1191.4,193.218 1188.5,189.304 1186.44,184.584C 1184.37,179.864 1183.34,174.337 1183.34,168.004C 1183.34,161.324 1184.45,155.561 1186.66,150.714C 1188.87,145.868 1191.95,141.851 1195.9,138.664C 1199.74,135.637 1204.16,133.424 1209.17,132.024C 1214.18,130.624 1219.38,129.924 1224.77,129.924C 1229.61,129.924 1234.07,130.434 1238.16,131.454C 1242.25,132.474 1246.06,133.804 1249.59,135.444L 1249.59,154.244L 1246.32,154.244C 1245.43,153.591 1244.36,152.824 1243.1,151.944C 1241.84,151.064 1240.29,150.204 1238.46,149.364C 1236.71,148.564 1234.79,147.898 1232.7,147.364C 1230.61,146.831 1228.18,146.564 1225.4,146.564C 1219.26,146.564 1214.53,148.487 1211.23,152.334C 1207.93,156.181 1206.27,161.404 1206.27,168.004C 1206.27,174.804 1207.97,179.971 1211.36,183.504C 1214.75,187.038 1219.56,188.804 1225.78,188.804C 1228.69,188.804 1231.3,188.514 1233.62,187.934C 1235.94,187.354 1237.88,186.671 1239.42,185.884C 1240.86,185.138 1242.14,184.354 1243.25,183.534C 1244.35,182.714 1245.38,181.911 1246.32,181.124L 1249.59,181.124L 1249.59,200.064C 1246,201.718 1242.26,203.028 1238.37,203.994C 1234.48,204.961 1230.17,205.444 1225.46,205.444 Z "/>
		<path fill="#ffffff" fill-opacity="1" stroke-width="0.2" stroke-linejoin="round" d="M 1336.21,167.724C 1336.21,179.404 1332.81,188.611 1326.01,195.344C 1319.21,202.077 1309.66,205.444 1297.36,205.444C 1285.06,205.444 1275.51,202.077 1268.71,195.344C 1261.9,188.611 1258.5,179.404 1258.5,167.724C 1258.5,155.951 1261.93,146.708 1268.77,139.994C 1275.62,133.281 1285.15,129.924 1297.36,129.924C 1309.74,129.924 1319.31,133.301 1326.07,140.054C 1332.83,146.808 1336.21,156.031 1336.21,167.724 Z M 1308.68,185.424C 1310.21,183.558 1311.36,181.318 1312.13,178.704C 1312.9,176.091 1313.28,172.471 1313.28,167.844C 1313.28,163.564 1312.89,159.978 1312.1,157.084C 1311.31,154.191 1310.21,151.878 1308.8,150.144C 1307.4,148.371 1305.71,147.118 1303.74,146.384C 1301.77,145.651 1299.64,145.284 1297.36,145.284C 1295.08,145.284 1293.05,145.587 1291.27,146.194C 1289.49,146.801 1287.79,148.011 1286.17,149.824C 1284.73,151.504 1283.57,153.814 1282.72,156.754C 1281.86,159.694 1281.43,163.391 1281.43,167.844C 1281.43,171.818 1281.81,175.264 1282.55,178.184C 1283.29,181.104 1284.39,183.451 1285.83,185.224C 1287.24,186.904 1288.92,188.134 1290.87,188.914C 1292.82,189.694 1295.05,190.084 1297.56,190.084C 1299.71,190.084 1301.76,189.728 1303.71,189.014C 1305.66,188.301 1307.32,187.104 1308.68,185.424 Z "/>
		<path fill="#ffffff" fill-opacity="1" stroke-width="0.2" stroke-linejoin="round" d="M 1420.29,152.124L 1420.29,202.884L 1397.36,202.884L 1397.36,167.104C 1397.36,163.624 1397.28,160.661 1397.11,158.214C 1396.95,155.768 1396.5,153.778 1395.77,152.244C 1395.04,150.711 1393.93,149.594 1392.45,148.894C 1390.98,148.194 1388.89,147.844 1386.19,147.844C 1384.04,147.844 1381.95,148.301 1379.92,149.214C 1377.89,150.128 1376.06,151.097 1374.43,152.124L 1374.43,202.884L 1351.5,202.884L 1351.5,132.484L 1374.43,132.484L 1374.43,139.724C 1378.28,136.644 1381.96,134.241 1385.48,132.514C 1388.99,130.788 1392.88,129.924 1397.14,129.924C 1401.73,129.924 1405.79,130.967 1409.3,133.054C 1412.82,135.141 1415.57,138.204 1417.56,142.244C 1422.05,138.417 1426.41,135.407 1430.63,133.214C 1434.86,131.021 1439,129.924 1443.06,129.924C 1450.61,129.924 1456.35,132.221 1460.27,136.814C 1464.19,141.407 1466.15,148.024 1466.15,156.664L 1466.15,202.884L 1443.22,202.884L 1443.22,167.104C 1443.22,163.571 1443.15,160.594 1443.01,158.174C 1442.87,155.754 1442.43,153.778 1441.69,152.244C 1441,150.711 1439.91,149.594 1438.41,148.894C 1436.91,148.194 1434.79,147.844 1432.06,147.844C 1430.22,147.844 1428.44,148.174 1426.69,148.834C 1424.95,149.494 1422.81,150.591 1420.29,152.124 Z "/>
		<path fill="#ffffff" fill-opacity="1" stroke-width="0.2" stroke-linejoin="round" d="M 1167.85,88.8595C 1167.85,107.083 1153.08,121.855 1134.86,121.855C 1116.63,121.855 1101.86,107.083 1101.86,88.8595C 1101.86,70.6365 1116.63,55.8638 1134.86,55.8638C 1153.08,55.8638 1167.85,70.6365 1167.85,88.8595 Z M 1107.58,88.8597C 1107.58,103.924 1119.79,116.136 1134.86,116.136C 1149.92,116.136 1162.13,103.924 1162.13,88.8597C 1162.13,73.7953 1149.92,61.5831 1134.86,61.5831C 1119.79,61.5831 1107.58,73.7953 1107.58,88.8597 Z M 1140.18,82.0386C 1140.18,81.2213 1140.04,80.5216 1139.76,79.9395C 1139.48,79.3574 1139.01,78.8974 1138.34,78.5596C 1137.87,78.3267 1137.32,78.1851 1136.69,78.1349L 1134.51,78.0596L 1132.01,78.0596L 1132.01,86.8256L 1134.13,86.8256C 1135.24,86.8256 1136.17,86.7606 1136.91,86.6304C 1137.66,86.5003 1138.28,86.2001 1138.79,85.7299C 1139.27,85.2779 1139.62,84.7791 1139.84,84.2335C 1140.06,83.6879 1140.18,82.9563 1140.18,82.0386 Z M 1150.95,104.358L 1142.5,104.358L 1135.12,92.5235L 1132.01,92.5235L 1132.01,104.358L 1124.95,104.358L 1124.95,72.3617L 1136.6,72.3617C 1138.19,72.3617 1139.56,72.469 1140.7,72.6836C 1141.85,72.8982 1142.92,73.3616 1143.92,74.0738C 1144.93,74.786 1145.74,75.7083 1146.34,76.8406C 1146.93,77.9729 1147.23,79.3951 1147.23,81.1072C 1147.23,83.4585 1146.77,85.3761 1145.86,86.8599C 1144.94,88.3436 1143.63,89.5764 1141.93,90.558L 1150.95,104.358 Z "/>
		<g>
			<path fill="#ffffff" fill-opacity="1" stroke-width="0.2" stroke-linejoin="round" d="M 266.337,230.454L 244.543,230.454L 244.543,269.151L 238.652,269.151L 238.652,225.012L 266.337,225.012L 266.337,230.454 Z "/>
			<path fill="#ffffff" fill-opacity="1" stroke-width="0.2" stroke-linejoin="round" d="M 298.735,252.826L 274.584,252.826C 274.584,254.898 274.888,256.703 275.495,258.24C 276.102,259.776 276.937,261.039 277.998,262.028C 279.017,262.992 280.227,263.714 281.629,264.196C 283.031,264.678 284.576,264.919 286.263,264.919C 288.497,264.919 290.746,264.443 293.01,263.492C 295.274,262.541 296.888,261.606 297.851,260.686L 298.146,260.686L 298.146,266.903C 296.305,267.715 294.424,268.394 292.504,268.939C 290.583,269.484 288.564,269.756 286.448,269.756C 281.054,269.756 276.845,268.257 273.82,265.259C 270.795,262.261 269.282,258.003 269.282,252.486C 269.282,247.032 270.73,242.701 273.627,239.496C 276.523,236.29 280.333,234.687 285.058,234.687C 289.433,234.687 292.806,235.997 295.177,238.617C 297.549,241.237 298.735,244.959 298.735,249.784L 298.735,252.826 Z M 293.433,248.594C 293.415,245.514 292.683,243.131 291.238,241.446C 289.793,239.762 287.598,238.919 284.653,238.919C 281.689,238.919 279.328,239.845 277.57,241.697C 275.813,243.549 274.817,245.847 274.584,248.594L 293.433,248.594 Z "/>
			<path fill="#ffffff" fill-opacity="1" stroke-width="0.2" stroke-linejoin="round" d="M 334.666,252.543C 334.666,258.047 333.307,262.393 330.589,265.58C 327.871,268.767 324.229,270.361 319.664,270.361C 315.056,270.361 311.398,268.767 308.689,265.58C 305.98,262.393 304.625,258.047 304.625,252.543C 304.625,247.032 305.98,242.678 308.689,239.481C 311.398,236.285 315.056,234.687 319.664,234.687C 324.229,234.687 327.871,236.285 330.589,239.481C 333.307,242.678 334.666,247.032 334.666,252.543 Z M 329.365,252.543C 329.365,248.14 328.509,244.87 326.797,242.731C 325.085,240.593 322.708,239.524 319.664,239.524C 316.578,239.524 314.183,240.593 312.481,242.731C 310.778,244.87 309.926,248.14 309.926,252.543C 309.926,256.8 310.782,260.028 312.494,262.226C 314.206,264.424 316.596,265.524 319.664,265.524C 322.683,265.524 325.055,264.434 326.779,262.255C 328.503,260.076 329.365,256.838 329.365,252.543 Z "/>
			<path fill="#ffffff" fill-opacity="1" stroke-width="0.2" stroke-linejoin="round" d="M 370.009,269.151L 364.708,269.151L 364.708,244.172L 347.754,269.151L 342.913,269.151L 342.913,235.896L 348.214,235.896L 348.214,260.516L 364.993,235.896L 370.009,235.896L 370.009,269.151 Z "/>
			<path fill="#ffffff" fill-opacity="1" stroke-width="0.2" stroke-linejoin="round" d="M 407.708,269.151L 402.406,269.151L 402.406,254.035L 385.913,254.035L 385.913,269.151L 380.612,269.151L 380.612,235.896L 385.913,235.896L 385.913,249.198L 402.406,249.198L 402.406,235.896L 407.708,235.896L 407.708,269.151 Z "/>
			<path fill="#ffffff" fill-opacity="1" stroke-width="0.2" stroke-linejoin="round" d="M 458.955,251.466C 458.955,254.47 458.591,257.129 457.864,259.444C 457.137,261.759 456.172,263.662 454.969,265.155C 453.779,266.648 452.409,267.788 450.86,268.575C 449.311,269.362 447.686,269.756 445.987,269.756C 444.704,269.756 443.59,269.525 442.646,269.062C 441.701,268.599 440.854,268.175 440.105,267.791L 440.105,281.244L 434.804,281.244L 434.804,267.791C 433.638,268.396 432.678,268.874 431.923,269.227C 431.168,269.58 429.987,269.756 428.38,269.756C 424.686,269.756 421.692,268.232 419.397,265.183C 417.102,262.135 415.954,257.896 415.954,252.467C 415.954,249.62 416.327,247.08 417.073,244.848C 417.818,242.615 418.795,240.743 420.004,239.231C 421.17,237.757 422.541,236.631 424.118,235.854C 425.695,235.076 427.269,234.687 428.84,234.687C 429.987,234.687 431.033,234.874 431.978,235.249C 432.923,235.624 433.865,236.113 434.804,236.718L 434.804,223.199L 440.105,223.199L 440.105,236.718C 440.983,236.17 442.015,235.695 443.202,235.291C 444.39,234.888 445.585,234.687 446.787,234.687C 450.579,234.687 453.555,236.195 455.715,239.212C 457.875,242.229 458.955,246.314 458.955,251.466 Z M 453.653,252.089C 453.653,248.216 452.992,245.153 451.67,242.901C 450.348,240.65 448.361,239.524 445.71,239.524C 444.643,239.524 443.748,239.615 443.028,239.798C 442.307,239.981 441.332,240.324 440.105,240.828L 440.105,263.492C 441.02,263.94 441.783,264.289 442.397,264.541C 443.011,264.793 443.882,264.919 445.011,264.919C 447.754,264.919 449.88,263.818 451.389,261.617C 452.899,259.416 453.653,256.24 453.653,252.089 Z M 434.804,263.492L 434.804,240.828C 434.043,240.462 433.273,240.154 432.494,239.902C 431.714,239.65 430.849,239.524 429.898,239.524C 427.272,239.524 425.175,240.568 423.607,242.656C 422.04,244.744 421.256,247.916 421.256,252.174C 421.256,256.13 421.952,259.242 423.345,261.513C 424.738,263.784 426.747,264.919 429.374,264.919C 430.404,264.919 431.363,264.772 432.25,264.48C 433.136,264.187 433.988,263.858 434.804,263.492 Z "/>
			<path fill="#ffffff" fill-opacity="1" stroke-width="0.2" stroke-linejoin="round" d="M 495.476,252.543C 495.476,258.047 494.116,262.393 491.398,265.58C 488.68,268.767 485.038,270.361 480.473,270.361C 475.865,270.361 472.207,268.767 469.498,265.58C 466.789,262.393 465.434,258.047 465.434,252.543C 465.434,247.032 466.789,242.678 469.498,239.481C 472.207,236.285 475.865,234.687 480.473,234.687C 485.038,234.687 488.68,236.285 491.398,239.481C 494.116,242.678 495.476,247.032 495.476,252.543 Z M 490.174,252.543C 490.174,248.14 489.318,244.87 487.606,242.731C 485.894,240.593 483.517,239.524 480.473,239.524C 477.387,239.524 474.992,240.593 473.29,242.731C 471.587,244.87 470.736,248.14 470.736,252.543C 470.736,256.8 471.592,260.028 473.304,262.226C 475.015,264.424 477.405,265.524 480.473,265.524C 483.492,265.524 485.864,264.434 487.588,262.255C 489.312,260.076 490.174,256.838 490.174,252.543 Z "/>
			<path fill="#ffffff" fill-opacity="1" stroke-width="0.2" stroke-linejoin="round" d="M 531.996,251.947C 531.996,254.668 531.62,257.153 530.869,259.402C 530.117,261.65 529.057,263.552 527.689,265.108C 526.419,266.588 524.922,267.733 523.197,268.542C 521.473,269.351 519.648,269.756 517.721,269.756C 516.046,269.756 514.529,269.567 513.17,269.189C 511.811,268.811 510.429,268.222 509.023,267.423L 509.023,281.244L 503.722,281.244L 503.722,235.896L 509.023,235.896L 509.023,239.127C 510.465,237.867 512.088,236.812 513.892,235.962C 515.696,235.112 517.617,234.687 519.654,234.687C 523.55,234.687 526.581,236.211 528.747,239.259C 530.913,242.308 531.996,246.537 531.996,251.947 Z M 526.695,252.25C 526.695,248.187 526.018,245.152 524.665,243.142C 523.312,241.133 521.234,240.129 518.43,240.129C 516.847,240.129 515.251,240.48 513.644,241.182C 512.036,241.884 510.496,242.809 509.023,243.955L 509.023,263.048C 510.594,263.773 511.943,264.265 513.069,264.527C 514.195,264.788 515.472,264.919 516.902,264.919C 519.982,264.919 522.384,263.853 524.109,261.721C 525.833,259.589 526.695,256.432 526.695,252.25 Z "/>
			<path fill="#ffffff" fill-opacity="1" stroke-width="0.2" stroke-linejoin="round" d="M 570.873,269.151L 565.572,269.151L 565.572,242.925L 557.546,260.082L 553.505,260.082L 545.544,242.925L 545.544,269.151L 540.243,269.151L 540.243,235.896L 547.017,235.896L 555.788,254.583L 564.274,235.896L 570.873,235.896L 570.873,269.151 Z "/>
			<path fill="#ffffff" fill-opacity="1" stroke-width="0.2" stroke-linejoin="round" d="M 606.216,269.151L 600.914,269.151L 600.914,265.76C 600.436,266.106 599.792,266.591 598.982,267.215C 598.172,267.838 597.386,268.336 596.626,268.707C 595.73,269.173 594.7,269.565 593.538,269.884C 592.375,270.202 591.011,270.361 589.446,270.361C 586.569,270.361 584.128,269.339 582.125,267.295C 580.122,265.251 579.12,262.645 579.12,259.477C 579.12,256.882 579.64,254.782 580.68,253.176C 581.72,251.57 583.203,250.307 585.13,249.387C 587.075,248.468 589.41,247.844 592.134,247.517C 594.858,247.189 597.785,246.943 600.914,246.78L 600.914,245.901C 600.914,244.61 600.701,243.542 600.275,242.698C 599.848,241.854 599.236,241.19 598.439,240.705C 597.684,240.239 596.776,239.925 595.714,239.765C 594.653,239.604 593.542,239.524 592.383,239.524C 590.984,239.524 589.422,239.73 587.698,240.143C 585.974,240.555 584.191,241.155 582.35,241.942L 582.065,241.942L 582.065,236.217C 583.108,235.915 584.615,235.584 586.584,235.225C 588.554,234.866 590.496,234.687 592.41,234.687C 594.644,234.687 596.589,234.882 598.245,235.273C 599.902,235.663 601.338,236.331 602.553,237.275C 603.743,238.201 604.651,239.396 605.277,240.861C 605.903,242.325 606.216,244.144 606.216,246.317L 606.216,269.151 Z M 600.914,260.8L 600.914,251.012C 599.252,251.119 597.293,251.277 595.038,251.484C 592.783,251.692 590.996,251.998 589.677,252.401C 588.106,252.88 586.837,253.628 585.871,254.645C 584.904,255.662 584.421,257.062 584.421,258.844C 584.421,260.86 584.983,262.376 586.106,263.393C 587.228,264.41 588.94,264.919 591.241,264.919C 593.162,264.919 594.915,264.516 596.501,263.71C 598.087,262.903 599.558,261.933 600.914,260.8 Z "/>
			<path fill="#ffffff" fill-opacity="1" stroke-width="0.2" stroke-linejoin="round" d="M 641.558,269.151L 616.819,269.151L 616.819,235.896L 622.12,235.896L 622.12,264.314L 637.435,264.314L 637.435,235.896L 642.737,235.896L 642.737,264.314L 646.86,264.314L 646.86,277.012L 641.558,277.012L 641.558,269.151 Z "/>
			<path fill="#ffffff" fill-opacity="1" stroke-width="0.2" stroke-linejoin="round" d="M 681.613,269.151L 676.312,269.151L 676.312,244.172L 659.359,269.151L 654.517,269.151L 654.517,235.896L 659.819,235.896L 659.819,260.516L 676.597,235.896L 681.613,235.896L 681.613,269.151 Z "/>
			<path fill="#ffffff" fill-opacity="1" stroke-width="0.2" stroke-linejoin="round" d="M 719.901,252.543C 719.901,258.047 718.542,262.393 715.824,265.58C 713.106,268.767 709.464,270.361 704.899,270.361C 700.291,270.361 696.633,268.767 693.924,265.58C 691.215,262.393 689.86,258.047 689.86,252.543C 689.86,247.032 691.215,242.678 693.924,239.481C 696.633,236.285 700.291,234.687 704.899,234.687C 709.464,234.687 713.106,236.285 715.824,239.481C 718.542,242.678 719.901,247.032 719.901,252.543 Z M 714.6,252.543C 714.6,248.14 713.744,244.87 712.032,242.731C 710.32,240.593 707.943,239.524 704.899,239.524C 701.813,239.524 699.418,240.593 697.716,242.731C 696.013,244.87 695.161,248.14 695.161,252.543C 695.161,256.8 696.017,260.028 697.729,262.226C 699.441,264.424 701.831,265.524 704.899,265.524C 707.918,265.524 710.289,264.434 712.014,262.255C 713.738,260.076 714.6,256.838 714.6,252.543 Z "/>
			<path fill="#ffffff" fill-opacity="1" stroke-width="0.2" stroke-linejoin="round" d="M 755.244,269.151L 749.943,269.151L 749.943,254.035L 733.449,254.035L 733.449,269.151L 728.148,269.151L 728.148,235.896L 733.449,235.896L 733.449,249.198L 749.943,249.198L 749.943,235.896L 755.244,235.896L 755.244,269.151 Z "/>
			<path fill="#ffffff" fill-opacity="1" stroke-width="0.2" stroke-linejoin="round" d="M 792.943,269.151L 787.641,269.151L 787.641,254.035L 771.148,254.035L 771.148,269.151L 765.847,269.151L 765.847,235.896L 771.148,235.896L 771.148,249.198L 787.641,249.198L 787.641,235.896L 792.943,235.896L 792.943,269.151 Z "/>
			<path fill="#ffffff" fill-opacity="1" stroke-width="0.2" stroke-linejoin="round" d="M 828.286,269.151L 822.984,269.151L 822.984,265.76C 822.506,266.106 821.861,266.591 821.051,267.215C 820.241,267.838 819.456,268.336 818.695,268.707C 817.799,269.173 816.77,269.565 815.607,269.884C 814.445,270.202 813.081,270.361 811.516,270.361C 808.639,270.361 806.198,269.339 804.195,267.295C 802.191,265.251 801.19,262.645 801.19,259.477C 801.19,256.882 801.71,254.782 802.75,253.176C 803.79,251.57 805.273,250.307 807.2,249.387C 809.145,248.468 811.479,247.844 814.204,247.517C 816.928,247.189 819.855,246.943 822.984,246.78L 822.984,245.901C 822.984,244.61 822.771,243.542 822.344,242.698C 821.918,241.854 821.306,241.19 820.508,240.705C 819.754,240.239 818.846,239.925 817.784,239.765C 816.723,239.604 815.612,239.524 814.452,239.524C 813.053,239.524 811.492,239.73 809.768,240.143C 808.043,240.555 806.261,241.155 804.42,241.942L 804.135,241.942L 804.135,236.217C 805.178,235.915 806.684,235.584 808.654,235.225C 810.624,234.866 812.565,234.687 814.48,234.687C 816.713,234.687 818.658,234.882 820.315,235.273C 821.972,235.663 823.408,236.331 824.623,237.275C 825.813,238.201 826.721,239.396 827.347,240.861C 827.973,242.325 828.286,244.144 828.286,246.317L 828.286,269.151 Z M 822.984,260.8L 822.984,251.012C 821.321,251.119 819.363,251.277 817.108,251.484C 814.853,251.692 813.066,251.998 811.746,252.401C 810.176,252.88 808.907,253.628 807.941,254.645C 806.974,255.662 806.491,257.062 806.491,258.844C 806.491,260.86 807.052,262.376 808.175,263.393C 809.298,264.41 811.01,264.919 813.311,264.919C 815.232,264.919 816.985,264.516 818.571,263.71C 820.157,262.903 821.628,261.933 822.984,260.8 Z "/>
			<path fill="#ffffff" fill-opacity="1" stroke-width="0.2" stroke-linejoin="round" d="M 863.628,269.151L 858.327,269.151L 858.327,255.849L 851.544,255.849L 841.429,269.151L 835.354,269.151L 846.316,255.32C 843.536,254.533 841.505,253.324 840.223,251.692C 838.941,250.061 838.299,247.926 838.299,245.287C 838.299,243.53 838.683,242.039 839.45,240.814C 840.217,239.588 841.186,238.592 842.358,237.823C 843.512,237.074 844.839,236.565 846.339,236.298C 847.839,236.03 849.473,235.896 851.24,235.896L 863.628,235.896L 863.628,269.151 Z M 858.327,251.617L 858.327,240.129L 851.323,240.129C 849.801,240.129 848.706,240.179 848.037,240.28C 847.368,240.38 846.638,240.654 845.847,241.102C 845.08,241.555 844.514,242.163 844.148,242.925C 843.783,243.687 843.601,244.515 843.601,245.41C 843.601,246.531 843.714,247.438 843.941,248.131C 844.168,248.823 844.638,249.475 845.35,250.086C 846.073,250.678 846.959,251.081 848.005,251.296C 849.051,251.51 850.215,251.617 851.498,251.617L 858.327,251.617 Z "/>
			<path fill="#ffffff" fill-opacity="1" stroke-width="0.2" stroke-linejoin="round" d="M 918.409,266.903C 916.237,267.986 914.372,268.733 912.813,269.142C 911.255,269.551 909.703,269.756 908.156,269.756C 905.849,269.756 903.734,269.4 901.81,268.688C 899.887,267.977 898.235,266.903 896.854,265.467C 895.473,264.025 894.401,262.203 893.637,260.001C 892.873,257.8 892.491,255.226 892.491,252.278C 892.491,246.937 893.889,242.67 896.684,239.477C 899.479,236.283 903.303,234.687 908.156,234.687C 909.985,234.687 911.783,234.958 913.55,235.499C 915.317,236.041 916.937,236.702 918.409,237.483L 918.409,243.756L 918.096,243.756C 916.317,242.314 914.564,241.248 912.836,240.558C 911.109,239.869 909.436,239.524 907.816,239.524C 904.625,239.524 902.157,240.65 900.411,242.901C 898.666,245.153 897.793,248.279 897.793,252.278C 897.793,256.284 898.661,259.392 900.397,261.603C 902.134,263.814 904.607,264.919 907.816,264.919C 908.939,264.919 910.058,264.766 911.175,264.461C 912.292,264.155 913.31,263.76 914.231,263.275C 914.955,262.891 915.703,262.43 916.477,261.891C 917.25,261.352 917.79,260.951 918.096,260.686L 918.409,260.686L 918.409,266.903 Z "/>
			<path fill="#ffffff" fill-opacity="1" stroke-width="0.2" stroke-linejoin="round" d="M 953.163,269.151L 947.862,269.151L 947.862,244.172L 930.908,269.151L 926.067,269.151L 926.067,235.896L 931.368,235.896L 931.368,260.516L 948.147,235.896L 953.163,235.896L 953.163,269.151 Z "/>
			<path fill="#ffffff" fill-opacity="1" stroke-width="0.2" stroke-linejoin="round" d="M 987.328,266.903C 985.155,267.986 983.29,268.733 981.732,269.142C 980.173,269.551 978.621,269.756 977.074,269.756C 974.767,269.756 972.652,269.4 970.728,268.688C 968.805,267.977 967.153,266.903 965.772,265.467C 964.392,264.025 963.319,262.203 962.555,260.001C 961.792,257.8 961.41,255.226 961.41,252.278C 961.41,246.937 962.807,242.67 965.602,239.477C 968.397,236.283 972.221,234.687 977.074,234.687C 978.903,234.687 980.701,234.958 982.468,235.499C 984.235,236.041 985.855,236.702 987.328,237.483L 987.328,243.756L 987.015,243.756C 985.235,242.314 983.482,241.248 981.755,240.558C 980.027,239.869 978.354,239.524 976.734,239.524C 973.543,239.524 971.075,240.65 969.329,242.901C 967.584,245.153 966.711,248.279 966.711,252.278C 966.711,256.284 967.579,259.392 969.316,261.603C 971.052,263.814 973.525,264.919 976.734,264.919C 977.857,264.919 978.977,264.766 980.093,264.461C 981.21,264.155 982.229,263.76 983.149,263.275C 983.873,262.891 984.622,262.43 985.395,261.891C 986.168,261.352 986.708,260.951 987.015,260.686L 987.328,260.686L 987.328,266.903 Z "/>
			<path fill="#ffffff" fill-opacity="1" stroke-width="0.2" stroke-linejoin="round" d="M 1018.55,240.733L 1006.77,240.733L 1006.77,269.151L 1001.46,269.151L 1001.46,240.733L 989.684,240.733L 989.684,235.896L 1018.55,235.896L 1018.55,240.733 Z "/>
			<path fill="#ffffff" fill-opacity="1" stroke-width="0.2" stroke-linejoin="round" d="M 1051.53,252.826L 1027.38,252.826C 1027.38,254.898 1027.69,256.703 1028.29,258.24C 1028.9,259.776 1029.74,261.039 1030.8,262.028C 1031.82,262.992 1033.03,263.714 1034.43,264.196C 1035.83,264.678 1037.37,264.919 1039.06,264.919C 1041.3,264.919 1043.54,264.443 1045.81,263.492C 1048.07,262.541 1049.69,261.606 1050.65,260.686L 1050.94,260.686L 1050.94,266.903C 1049.1,267.715 1047.22,268.394 1045.3,268.939C 1043.38,269.484 1041.36,269.756 1039.25,269.756C 1033.85,269.756 1029.64,268.257 1026.62,265.259C 1023.59,262.261 1022.08,258.003 1022.08,252.486C 1022.08,247.032 1023.53,242.701 1026.43,239.496C 1029.32,236.29 1033.13,234.687 1037.86,234.687C 1042.23,234.687 1045.6,235.997 1047.98,238.617C 1050.35,241.237 1051.53,244.959 1051.53,249.784L 1051.53,252.826 Z M 1046.23,248.594C 1046.21,245.514 1045.48,243.131 1044.04,241.446C 1042.59,239.762 1040.4,238.919 1037.45,238.919C 1034.49,238.919 1032.13,239.845 1030.37,241.697C 1028.61,243.549 1027.62,245.847 1027.38,248.594L 1046.23,248.594 Z "/>
			<path fill="#ffffff" fill-opacity="1" stroke-width="0.2" stroke-linejoin="round" d="M 1090.41,269.151L 1085.11,269.151L 1085.11,242.925L 1077.08,260.082L 1073.04,260.082L 1065.08,242.925L 1065.08,269.151L 1059.78,269.151L 1059.78,235.896L 1066.55,235.896L 1075.33,254.583L 1083.81,235.896L 1090.41,235.896L 1090.41,269.151 Z "/>
			<path fill="#ffffff" fill-opacity="1" stroke-width="0.2" stroke-linejoin="round" d="M 1125.75,269.151L 1120.45,269.151L 1120.45,265.76C 1119.97,266.106 1119.33,266.591 1118.52,267.215C 1117.71,267.838 1116.92,268.336 1116.16,268.707C 1115.27,269.173 1114.24,269.565 1113.07,269.884C 1111.91,270.202 1110.55,270.361 1108.98,270.361C 1106.11,270.361 1103.67,269.339 1101.66,267.295C 1099.66,265.251 1098.66,262.645 1098.66,259.477C 1098.66,256.882 1099.18,254.782 1100.22,253.176C 1101.26,251.57 1102.74,250.307 1104.67,249.387C 1106.61,248.468 1108.95,247.844 1111.67,247.517C 1114.4,247.189 1117.32,246.943 1120.45,246.78L 1120.45,245.901C 1120.45,244.61 1120.24,243.542 1119.81,242.698C 1119.39,241.854 1118.77,241.19 1117.98,240.705C 1117.22,240.239 1116.31,239.925 1115.25,239.765C 1114.19,239.604 1113.08,239.524 1111.92,239.524C 1110.52,239.524 1108.96,239.73 1107.23,240.143C 1105.51,240.555 1103.73,241.155 1101.89,241.942L 1101.6,241.942L 1101.6,236.217C 1102.65,235.915 1104.15,235.584 1106.12,235.225C 1108.09,234.866 1110.03,234.687 1111.95,234.687C 1114.18,234.687 1116.13,234.882 1117.78,235.273C 1119.44,235.663 1120.87,236.331 1122.09,237.275C 1123.28,238.201 1124.19,239.396 1124.81,240.861C 1125.44,242.325 1125.75,244.144 1125.75,246.317L 1125.75,269.151 Z M 1120.45,260.8L 1120.45,251.012C 1118.79,251.119 1116.83,251.277 1114.57,251.484C 1112.32,251.692 1110.53,251.998 1109.21,252.401C 1107.64,252.88 1106.37,253.628 1105.41,254.645C 1104.44,255.662 1103.96,257.062 1103.96,258.844C 1103.96,260.86 1104.52,262.376 1105.64,263.393C 1106.77,264.41 1108.48,264.919 1110.78,264.919C 1112.7,264.919 1114.45,264.516 1116.04,263.71C 1117.62,262.903 1119.1,261.933 1120.45,260.8 Z "/>
			<path fill="#ffffff" fill-opacity="1" stroke-width="0.2" stroke-linejoin="round" d="M 1181.71,269.151L 1176.41,269.151L 1176.41,265.76C 1175.93,266.106 1175.29,266.591 1174.48,267.215C 1173.67,267.838 1172.88,268.336 1172.12,268.707C 1171.23,269.173 1170.2,269.565 1169.03,269.884C 1167.87,270.202 1166.51,270.361 1164.94,270.361C 1162.06,270.361 1159.62,269.339 1157.62,267.295C 1155.62,265.251 1154.62,262.645 1154.62,259.477C 1154.62,256.882 1155.14,254.782 1156.18,253.176C 1157.22,251.57 1158.7,250.307 1160.63,249.387C 1162.57,248.468 1164.91,247.844 1167.63,247.517C 1170.35,247.189 1173.28,246.943 1176.41,246.78L 1176.41,245.901C 1176.41,244.61 1176.2,243.542 1175.77,242.698C 1175.34,241.854 1174.73,241.19 1173.93,240.705C 1173.18,240.239 1172.27,239.925 1171.21,239.765C 1170.15,239.604 1169.04,239.524 1167.88,239.524C 1166.48,239.524 1164.92,239.73 1163.19,240.143C 1161.47,240.555 1159.69,241.155 1157.85,241.942L 1157.56,241.942L 1157.56,236.217C 1158.6,235.915 1160.11,235.584 1162.08,235.225C 1164.05,234.866 1165.99,234.687 1167.91,234.687C 1170.14,234.687 1172.08,234.882 1173.74,235.273C 1175.4,235.663 1176.83,236.331 1178.05,237.275C 1179.24,238.201 1180.15,239.396 1180.77,240.861C 1181.4,242.325 1181.71,244.144 1181.71,246.317L 1181.71,269.151 Z M 1176.41,260.8L 1176.41,251.012C 1174.75,251.119 1172.79,251.277 1170.53,251.484C 1168.28,251.692 1166.49,251.998 1165.17,252.401C 1163.6,252.88 1162.33,253.628 1161.37,254.645C 1160.4,255.662 1159.92,257.062 1159.92,258.844C 1159.92,260.86 1160.48,262.376 1161.6,263.393C 1162.72,264.41 1164.44,264.919 1166.74,264.919C 1168.66,264.919 1170.41,264.516 1172,263.71C 1173.58,262.903 1175.05,261.933 1176.41,260.8 Z "/>
			<path fill="#ffffff" fill-opacity="1" stroke-width="0.2" stroke-linejoin="round" d="M 1219.41,269.151L 1214.11,269.151L 1214.11,254.035L 1197.62,254.035L 1197.62,269.151L 1192.31,269.151L 1192.31,235.896L 1197.62,235.896L 1197.62,249.198L 1214.11,249.198L 1214.11,235.896L 1219.41,235.896L 1219.41,269.151 Z "/>
			<path fill="#ffffff" fill-opacity="1" stroke-width="0.2" stroke-linejoin="round" d="M 1254.75,269.151L 1249.45,269.151L 1249.45,265.76C 1248.97,266.106 1248.33,266.591 1247.52,267.215C 1246.71,267.838 1245.92,268.336 1245.16,268.707C 1244.27,269.173 1243.24,269.565 1242.08,269.884C 1240.91,270.202 1239.55,270.361 1237.98,270.361C 1235.11,270.361 1232.67,269.339 1230.66,267.295C 1228.66,265.251 1227.66,262.645 1227.66,259.477C 1227.66,256.882 1228.18,254.782 1229.22,253.176C 1230.26,251.57 1231.74,250.307 1233.67,249.387C 1235.61,248.468 1237.95,247.844 1240.67,247.517C 1243.4,247.189 1246.32,246.943 1249.45,246.78L 1249.45,245.901C 1249.45,244.61 1249.24,243.542 1248.81,242.698C 1248.39,241.854 1247.77,241.19 1246.98,240.705C 1246.22,240.239 1245.31,239.925 1244.25,239.765C 1243.19,239.604 1242.08,239.524 1240.92,239.524C 1239.52,239.524 1237.96,239.73 1236.24,240.143C 1234.51,240.555 1232.73,241.155 1230.89,241.942L 1230.6,241.942L 1230.6,236.217C 1231.65,235.915 1233.15,235.584 1235.12,235.225C 1237.09,234.866 1239.03,234.687 1240.95,234.687C 1243.18,234.687 1245.13,234.882 1246.78,235.273C 1248.44,235.663 1249.88,236.331 1251.09,237.275C 1252.28,238.201 1253.19,239.396 1253.81,240.861C 1254.44,242.325 1254.75,244.144 1254.75,246.317L 1254.75,269.151 Z M 1249.45,260.8L 1249.45,251.012C 1247.79,251.119 1245.83,251.277 1243.58,251.484C 1241.32,251.692 1239.53,251.998 1238.21,252.401C 1236.64,252.88 1235.38,253.628 1234.41,254.645C 1233.44,255.662 1232.96,257.062 1232.96,258.844C 1232.96,260.86 1233.52,262.376 1234.64,263.393C 1235.77,264.41 1237.48,264.919 1239.78,264.919C 1241.7,264.919 1243.45,264.516 1245.04,263.71C 1246.63,262.903 1248.1,261.933 1249.45,260.8 Z "/>
			<path fill="#ffffff" fill-opacity="1" stroke-width="0.2" stroke-linejoin="round" d="M 1291.27,269.151L 1285.97,269.151L 1285.97,240.733L 1274.19,240.733C 1274.13,242.371 1274.07,243.949 1274.01,245.466C 1273.95,246.984 1273.89,248.354 1273.83,249.576C 1273.69,252.87 1273.46,255.497 1273.14,257.455C 1272.82,259.414 1272.4,261.045 1271.88,262.349C 1271.4,263.571 1270.87,264.561 1270.28,265.32C 1269.69,266.079 1269.06,266.764 1268.38,267.375C 1267.69,267.967 1266.94,268.411 1266.11,268.707C 1265.28,269.003 1264.38,269.151 1263.41,269.151C 1263.06,269.151 1262.57,269.142 1261.92,269.123C 1261.27,269.104 1260.85,269.095 1260.64,269.095L 1260.64,264.314L 1260.93,264.314C 1261.08,264.314 1261.3,264.314 1261.59,264.314C 1261.87,264.314 1262.11,264.314 1262.3,264.314C 1262.76,264.314 1263.24,264.245 1263.72,264.106C 1264.21,263.968 1264.63,263.71 1264.97,263.332C 1265.94,262.343 1266.72,260.668 1267.31,258.306C 1267.9,255.944 1268.3,252.53 1268.49,248.064C 1268.57,246.44 1268.64,244.511 1268.71,242.278C 1268.77,240.045 1268.84,237.918 1268.89,235.896L 1291.27,235.896L 1291.27,269.151 Z "/>
			<path fill="#ffffff" fill-opacity="1" stroke-width="0.2" stroke-linejoin="round" d="M 1328.97,269.151L 1323.67,269.151L 1323.67,244.172L 1306.72,269.151L 1301.88,269.151L 1301.88,235.896L 1307.18,235.896L 1307.18,260.516L 1323.96,235.896L 1328.97,235.896L 1328.97,269.151 Z "/>
			<path fill="#ffffff" fill-opacity="1" stroke-width="0.2" stroke-linejoin="round" d="M 1363.14,240.733L 1351.36,240.733L 1351.36,269.151L 1346.06,269.151L 1346.06,240.733L 1334.27,240.733L 1334.27,235.896L 1363.14,235.896L 1363.14,240.733 Z "/>
			<path fill="#ffffff" fill-opacity="1" stroke-width="0.2" stroke-linejoin="round" d="M 1396.12,269.151L 1390.82,269.151L 1390.82,244.172L 1373.87,269.151L 1369.03,269.151L 1369.03,235.896L 1374.33,235.896L 1374.33,260.516L 1391.11,235.896L 1396.12,235.896L 1396.12,269.151 Z "/>
			<path fill="#ffffff" fill-opacity="1" stroke-width="0.2" stroke-linejoin="round" d="M 1435.59,269.151L 1428.39,269.151L 1415.42,254.64L 1412.03,254.64L 1412.03,269.151L 1406.73,269.151L 1406.73,235.896L 1412.03,235.896L 1412.03,250.407C 1413.97,250.407 1415.53,250.071 1416.72,249.397C 1417.91,248.723 1418.9,247.643 1419.68,246.156C 1419.95,245.614 1420.22,245.038 1420.49,244.427C 1420.75,243.816 1421.01,243.231 1421.26,242.67C 1422.28,240.403 1423.53,238.707 1425.01,237.582C 1426.48,236.458 1428.61,235.896 1431.37,235.896L 1433.82,235.896L 1433.82,240.733L 1431.38,240.733C 1429.83,240.733 1428.62,241.076 1427.75,241.763C 1426.88,242.45 1426.09,243.637 1425.38,245.325C 1424.6,247.208 1423.77,248.641 1422.9,249.623C 1422.03,250.606 1421.1,251.349 1420.12,251.853L 1435.59,269.151 Z "/>
			<path fill="#ffffff" fill-opacity="1" stroke-width="0.2" stroke-linejoin="round" d="M 1466.22,269.151L 1460.92,269.151L 1460.92,265.76C 1460.44,266.106 1459.8,266.591 1458.99,267.215C 1458.18,267.838 1457.39,268.336 1456.63,268.707C 1455.73,269.173 1454.71,269.565 1453.54,269.884C 1452.38,270.202 1451.02,270.361 1449.45,270.361C 1446.57,270.361 1444.13,269.339 1442.13,267.295C 1440.13,265.251 1439.12,262.645 1439.12,259.477C 1439.12,256.882 1439.64,254.782 1440.68,253.176C 1441.72,251.57 1443.21,250.307 1445.13,249.387C 1447.08,248.468 1449.41,247.844 1452.14,247.517C 1454.86,247.189 1457.79,246.943 1460.92,246.78L 1460.92,245.901C 1460.92,244.61 1460.71,243.542 1460.28,242.698C 1459.85,241.854 1459.24,241.19 1458.44,240.705C 1457.69,240.239 1456.78,239.925 1455.72,239.765C 1454.66,239.604 1453.55,239.524 1452.39,239.524C 1450.99,239.524 1449.43,239.73 1447.7,240.143C 1445.98,240.555 1444.2,241.155 1442.35,241.942L 1442.07,241.942L 1442.07,236.217C 1443.11,235.915 1444.62,235.584 1446.59,235.225C 1448.56,234.866 1450.5,234.687 1452.41,234.687C 1454.65,234.687 1456.59,234.882 1458.25,235.273C 1459.91,235.663 1461.34,236.331 1462.56,237.275C 1463.75,238.201 1464.66,239.396 1465.28,240.861C 1465.91,242.325 1466.22,244.144 1466.22,246.317L 1466.22,269.151 Z M 1460.92,260.8L 1460.92,251.012C 1459.26,251.119 1457.3,251.277 1455.04,251.484C 1452.79,251.692 1451,251.998 1449.68,252.401C 1448.11,252.88 1446.84,253.628 1445.88,254.645C 1444.91,255.662 1444.43,257.062 1444.43,258.844C 1444.43,260.86 1444.99,262.376 1446.11,263.393C 1447.23,264.41 1448.95,264.919 1451.25,264.919C 1453.17,264.919 1454.92,264.516 1456.51,263.71C 1458.09,262.903 1459.56,261.933 1460.92,260.8 Z "/>
		</g>
	</g>
</svg>
